<!--?xml version="1.0" standalone="no"?-->
              <svg id="sw-js-blob-svg" viewBox="0 0 100 100" xmlns="http://www.w3.org/2000/svg" version="1.1">
                    <defs> 
                        <linearGradient id="sw-gradient" x1="0" x2="1" y1="1" y2="0">
                            <stop id="stop1" stop-color="rgba(248, 117, 55, 1)" offset="0%"></stop>
                            <stop id="stop2" stop-color="rgba(251, 168, 31, 1)" offset="100%"></stop>
                        </linearGradient>
                    </defs>
                <path fill="url(#sw-gradient)" d="M22,-24.1C30.1,-19.3,39.5,-14,42.9,-5.9C46.4,2.2,43.8,13,38.2,21.3C32.5,29.6,23.8,35.5,14.5,38.1C5.2,40.7,-4.6,40.1,-12.2,36.2C-19.9,32.3,-25.4,25.1,-27.9,17.6C-30.4,10.2,-29.9,2.5,-29.5,-6.1C-29,-14.7,-28.6,-24.2,-23.7,-29.5C-18.8,-34.8,-9.4,-36,-1.3,-34.5C6.9,-33.1,13.8,-28.9,22,-24.1Z" width="100%" height="100%" transform="translate(50 50)" stroke-width="0" style="transition: 0.3s;" stroke="url(#sw-gradient)"></path>
              </svg>