<svg
              xmlns="http://www.w3.org/2000/svg"
              version="1.1"
              xmlns:xlink="http://www.w3.org/1999/xlink"
              xmlns:svgjs="http://svgjs.dev/svgjs"
              viewBox="0 0 640 800"
            >
              <defs>
                <linearGradient
                  x1="50%"
                  y1="0%"
                  x2="50%"
                  y2="100%"
                  id="ccchaos-grad"
                >
                  <stop
                    stop-color="hsl(206, 75%, 49%)"
                    stop-opacity="1"
                    offset="0%"
                  ></stop>
                  <stop
                    stop-color="hsl(331, 90%, 56%)"
                    stop-opacity="1"
                    offset="100%"
                  ></stop>
                </linearGradient>
              </defs>
              <g
                stroke-width="1.5"
                stroke="url(#ccchaos-grad)"
                fill="none"
                stroke-linecap="round"
              >
                <path
                  d="M294.38 101.39C304 98.65 313.61 96.63 323.2 95.39 332.8 94.51 342.41 94.55 352.03 95.53 361.71 97.01 371.45 99.45 381.25 102.81 391.18 106.66 401.23 111.35 411.43 116.8 421.81 122.58 432.39 129 443.17 135.95 454.18 143.03 465.41 150.49 476.85 158.26 488.48 165.97 500.28 173.87 512.16 181.89 524.11 189.72 536.03 197.62 547.75 205.56 559.3 213.25 570.44 220.97 580.98 228.72 590.99 236.21 600.11 243.78 608.15 251.42 615.28 258.84 621.07 266.39 625.35 274.1 628.5 281.64 630.03 289.39 629.88 297.36 628.68 305.22 625.94 313.35 621.78 321.76 617 330.1 611.22 338.75 604.69 347.73 598.32 356.66 591.81 365.94 585.47 375.57 580.16 385.18 575.6 395.15 572.02 405.48 570.12 415.82 569.48 426.29 570.04 436.86 572.21 447.44 575.31 458.14 579.13 468.91 583.97 479.7 589 490.55 593.93 501.43 599.09 512.29 603.63 523.15 607.29 533.93 610.49 544.64 612.46 555.21 613.08 565.54 612.83 575.71 611.1 585.54 607.92 594.92 603.79 603.99 598.3 612.47 591.57 620.26 584.04 627.58 575.48 634.07 566.06 639.64 556.13 644.64 545.56 648.65 534.54 651.62 523.27 654.06 511.73 655.51 500.06 656.03 488.34 656.24 476.61 655.72 464.94 654.62 453.34 653.64 441.86 652.41 430.55 651.15 419.34 650.55 408.29 650.29 397.42 650.54 386.65 651.93 376.03 654.08 365.58 657.06 355.19 661.32 344.92 666.38 334.79 672.14 324.69 678.83 314.7 685.84 304.82 692.88 294.94 700.1 285.4 706.58 276.18 712.05 266.95 716.84 258.05 720.16 249.47 721.88 240.86 722.43 232.57 721.22 224.61 718.32 216.6 714.22 208.91 708.57 201.54 701.58 194.1 693.73 186.95 684.86 180.09 675.22 173.12 665.22 166.41 654.81 159.94 644.17 153.32 633.66 146.9 623.18 140.67 612.87 134.23 602.97 127.95 593.34 121.81 584.04 115.43 575.23 109.18 566.73 103.05 558.5 96.68 550.74 90.43 543.14 84.35 535.67 78.06 528.53 71.97 521.4 66.11 514.2 60.14 507.2 54.46 500.04 49.14 492.65 43.81 485.37 38.92 477.79 34.52 469.9 30.24 462.04 26.53 453.81 23.43 445.22 20.56 436.62 18.36 427.65 16.88 418.3 15.68 408.94 15.22 399.2 15.54 389.12 16.13 379.03 17.46 368.84 19.48 358.6 21.69 348.38 24.53 338.12 27.92 327.89 31.4 317.7 35.37 307.56 39.75 297.52 44.1 287.56 48.79 277.75 53.77 268.15 58.59 258.67 63.65 249.44 68.9 240.54 73.91 231.81 79.09 223.46 84.4 215.54 89.45 207.85 94.65 200.63 99.99 193.95 105.08 187.51 110.35 181.62 115.8 176.33 121.06 171.24 126.55 166.72 132.29 162.77 137.9 158.94 143.8 155.6 149.99 152.74 156.13 149.84 162.59 147.3 169.39 145.07 176.17 142.61 183.29 140.32 190.75 138.16 198.21 135.6 206 133.06 214.11 130.52 222.22 127.49 230.64 124.42 239.33 121.34 248.02 117.81 256.97 114.35 266.16 111.03 275.34 107.46 284.75 104.21 294.37 101.4"
                  stroke-dasharray="0 0"
                  transform="rotate(0, 320, 400)"
                  opacity="0.81"
                ></path>
                <path
                  d="M296.99 112.35C306.32 109.63 315.68 107.59 325.07 106.31 334.49 105.36 343.95 105.29 353.47 106.11 363.05 107.39 372.73 109.6 382.5 112.69 392.38 116.25 402.41 120.63 412.6 125.76 422.93 131.23 433.45 137.34 444.15 143.99 455.02 150.8 466.07 158.03 477.27 165.57 488.58 173.12 499.98 180.88 511.37 188.8 522.75 196.58 534 204.45 544.97 212.38 555.69 220.1 565.93 227.87 575.5 235.67 584.51 243.25 592.62 250.88 599.64 258.58 605.81 266.08 610.68 273.68 614.12 281.41 616.55 288.97 617.48 296.71 616.9 304.64 615.39 312.46 612.51 320.5 608.38 328.79 603.75 337.01 598.25 345.51 592.11 354.3 586.17 363.05 580.12 372.11 574.23 381.48 569.33 390.84 565.08 400.54 561.72 410.56 559.89 420.59 559.17 430.72 559.55 440.94 561.4 451.16 564.1 461.46 567.46 471.81 571.79 482.15 576.34 492.53 580.84 502.88 585.63 513.2 589.91 523.46 593.45 533.59 596.66 543.63 598.79 553.47 599.74 563.03 599.95 572.39 598.84 581.37 596.4 589.86 593.12 598.05 588.55 605.62 582.8 612.5 576.3 618.94 568.79 624.59 560.4 629.35 551.48 633.62 541.88 636.98 531.77 639.4 521.36 641.4 510.61 642.53 499.63 642.86 488.56 642.99 477.39 642.53 466.21 641.6 455.05 640.87 443.95 639.99 432.96 639.13 422.04 638.95 411.24 639.12 400.6 639.78 390.04 641.5 379.62 643.92 369.36 647.09 359.15 651.41 349.08 656.43 339.17 662.05 329.27 668.5 319.5 675.22 309.87 681.93 300.24 688.8 290.95 694.98 282.01 700.22 273.04 704.87 264.41 708.17 256.1 710 247.75 710.79 239.73 709.95 232.01 707.54 224.25 704.02 216.78 699.03 209.61 692.75 202.36 685.63 195.38 677.48 188.67 668.52 181.84 659.16 175.23 649.31 168.85 639.14 162.29 628.99 155.93 618.77 149.73 608.63 143.32 598.78 137.05 589.11 130.92 579.7 124.55 570.7 118.3 561.96 112.18 553.47 105.83 545.38 99.61 537.48 93.55 529.71 87.31 522.27 81.26 514.88 75.45 507.47 69.55 500.27 63.94 492.97 58.69 485.52 53.45 478.18 48.64 470.62 44.32 462.81 40.12 455.05 36.48 446.99 33.46 438.63 30.65 430.27 28.51 421.59 27.08 412.58 25.93 403.57 25.5 394.24 25.84 384.59 26.46 374.94 27.8 365.22 29.82 355.48 32.03 345.76 34.86 336.02 38.23 326.34 41.7 316.69 45.64 307.12 49.99 297.69 54.31 288.32 58.97 279.13 63.92 270.17 68.72 261.32 73.75 252.74 78.98 244.5 83.97 236.42 89.13 228.72 94.43 221.45 99.46 214.38 104.64 207.77 109.94 201.69 115 195.8 120.22 190.43 125.6 185.61 130.78 180.95 136.16 176.81 141.76 173.18 147.22 169.62 152.93 166.5 158.91 163.79 164.81 161.01 171.01 158.53 177.51 156.31 183.98 153.85 190.76 151.52 197.86 149.3 204.95 146.68 212.35 144.07 220.07 141.45 227.77 138.37 235.79 135.26 244.08 132.15 252.37 128.62 260.94 125.17 269.76 121.87 278.58 118.35 287.66 115.14 296.99 112.35"
                  stroke-dasharray="0 0"
                  transform="rotate(0.38461538461538464, 320, 400)"
                  opacity="0.37"
                ></path>
                <path
                  d="M300.59 123.3C309.64 120.61 318.77 118.57 327.96 117.25 337.17 116.24 346.48 116.05 355.87 116.72 365.31 117.82 374.88 119.79 384.57 122.62 394.34 125.89 404.27 129.96 414.35 134.76 424.55 139.9 434.91 145.68 445.42 152.01 456.04 158.52 466.79 165.47 477.62 172.77 488.5 180.1 499.39 187.69 510.2 195.45 520.92 203.13 531.42 210.93 541.57 218.81 551.42 226.52 560.72 234.29 569.33 242.11 577.36 249.73 584.48 257.41 590.54 265.15 595.79 272.7 599.82 280.34 602.51 288.09 604.29 295.68 604.71 303.42 603.76 311.31 602.02 319.09 599.06 327.07 595 335.26 590.55 343.38 585.35 351.74 579.59 360.35 574.08 368.92 568.48 377.77 563.04 386.9 558.51 396.01 554.57 405.42 551.41 415.13 549.65 424.83 548.88 434.61 549.09 444.44 550.63 454.27 552.95 464.14 555.88 474.02 559.73 483.88 563.81 493.73 567.88 503.51 572.28 513.24 576.27 522.86 579.65 532.3 582.8 541.64 585.03 550.73 586.21 559.48 586.81 568.04 586.2 576.18 584.41 583.8 581.87 591.13 578.14 597.85 573.3 603.87 567.77 609.51 561.24 614.39 553.85 618.44 545.94 622.09 537.32 624.9 528.13 626.88 518.62 628.54 508.71 629.45 498.5 629.67 488.15 629.81 477.63 629.46 467.03 628.75 456.41 628.31 445.77 627.79 435.2 627.33 424.66 627.56 414.2 628.13 403.87 629.17 393.59 631.19 383.43 633.85 373.42 637.17 363.45 641.52 353.62 646.49 343.94 651.96 334.27 658.17 324.74 664.59 315.36 670.98 305.97 677.51 296.93 683.39 288.23 688.41 279.51 692.9 271.12 696.17 263.05 698.09 254.94 699.07 247.13 698.57 239.63 696.61 232.06 693.63 224.78 689.27 217.77 683.67 210.67 677.26 203.82 669.84 197.21 661.58 190.48 652.89 183.95 643.63 177.61 634 171.11 624.29 164.77 614.43 158.59 604.54 152.2 594.85 145.94 585.26 139.8 575.84 133.45 566.76 127.21 557.88 121.09 549.21 114.76 540.89 108.57 532.75 102.54 524.75 96.36 517.05 90.37 509.42 84.63 501.82 78.81 494.43 73.29 486.99 68.12 479.46 62.99 472.05 58.28 464.48 54.04 456.73 49.95 449.04 46.4 441.11 43.45 432.94 40.73 424.79 38.65 416.37 37.27 407.68 36.17 398.99 35.79 390.03 36.15 380.8 36.79 371.58 38.13 362.33 40.14 353.08 42.35 343.84 45.15 334.64 48.49 325.51 51.93 316.41 55.83 307.42 60.14 298.59 64.42 289.82 69.05 281.25 73.95 272.92 78.73 264.7 83.73 256.76 88.92 249.17 93.91 241.71 99.05 234.64 104.32 227.99 109.35 221.51 114.51 215.47 119.8 209.93 124.84 204.54 130.02 199.64 135.35 195.25 140.48 190.96 145.79 187.15 151.29 183.79 156.63 180.46 162.2 177.51 168.01 174.92 173.72 172.21 179.71 169.77 185.97 167.54 192.17 165.05 198.67 162.67 205.46 160.37 212.23 157.69 219.3 155 226.67 152.32 234.03 149.19 241.68 146.05 249.63 142.91 257.56 139.4 265.78 135.97 274.28 132.7 282.76 129.23 291.54 126.06 300.58 123.3"
                  stroke-dasharray="0 0"
                  transform="rotate(0.7692307692307693, 320, 400)"
                  opacity="0.97"
                ></path>
                <path
                  d="M305.03 134.25C313.81 131.6 322.7 129.56 331.68 128.21 340.68 127.14 349.8 126.85 359.03 127.37 368.3 128.28 377.71 130.04 387.23 132.6 396.84 135.59 406.59 139.34 416.47 143.8 426.44 148.61 436.54 154.05 446.75 160.03 457.02 166.22 467.37 172.86 477.72 179.87 488.08 186.95 498.37 194.31 508.5 201.88 518.49 209.4 528.19 217.07 537.48 224.85 546.43 232.51 554.8 240.24 562.44 248.03 569.53 255.65 575.71 263.34 580.86 271.08 585.27 278.66 588.52 286.32 590.55 294.06 591.77 301.67 591.76 309.4 590.51 317.25 588.6 325 585.62 332.92 581.66 341.01 577.42 349.03 572.53 357.26 567.16 365.7 562.06 374.1 556.89 382.74 551.88 391.62 547.71 400.48 544.07 409.6 541.11 418.97 539.41 428.34 538.6 437.74 538.65 447.15 539.92 456.56 541.89 465.97 544.4 475.34 547.8 484.69 551.41 493.98 555.05 503.15 559.07 512.27 562.74 521.23 565.91 529.96 568.96 538.57 571.21 546.9 572.56 554.86 573.44 562.63 573.26 569.95 572 576.74 570.11 583.27 567.13 589.19 563.11 594.45 558.47 599.37 552.87 603.57 546.43 607.02 539.49 610.14 531.83 612.51 523.57 614.15 514.98 615.57 505.93 616.35 496.54 616.55 486.97 616.75 477.16 616.57 467.21 616.12 457.2 615.98 447.12 615.83 437.04 615.77 426.97 616.38 416.93 617.33 406.97 618.71 397.05 621 387.21 623.86 377.51 627.3 367.83 631.67 358.27 636.55 348.85 641.86 339.45 647.83 330.18 653.96 321.04 660.02 311.91 666.22 303.11 671.81 294.64 676.6 286.15 680.94 277.98 684.15 270.12 686.13 262.21 687.3 254.59 687.09 247.26 685.53 239.87 683.06 232.73 679.29 225.85 674.34 218.87 668.62 212.12 661.91 205.59 654.36 198.92 646.35 192.45 637.74 186.14 628.69 179.68 619.49 173.36 610.06 167.18 600.52 160.8 591.09 154.55 581.68 148.41 572.37 142.07 563.3 135.84 554.39 129.74 545.64 123.45 537.19 117.3 528.89 111.32 520.73 105.21 512.84 99.3 505.03 93.63 497.27 87.92 489.72 82.5 482.15 77.44 474.55 72.42 467.07 67.82 459.48 63.69 451.77 59.72 444.13 56.27 436.31 53.41 428.31 50.78 420.34 48.79 412.15 47.46 403.76 46.42 395.37 46.08 386.76 46.45 377.94 47.11 369.13 48.45 360.32 50.44 351.56 52.63 342.81 55.4 334.12 58.69 325.54 62.09 316.99 65.94 308.57 70.19 300.32 74.43 292.15 79 284.18 83.85 276.47 88.59 268.86 93.56 261.54 98.71 254.56 103.68 247.71 108.8 241.22 114.06 235.15 119.08 229.21 124.24 223.7 129.5 218.65 134.54 213.72 139.71 209.23 145.01 205.2 150.1 201.24 155.36 197.7 160.78 194.56 166.04 191.41 171.51 188.58 177.2 186.07 182.76 183.42 188.57 180.98 194.64 178.72 200.63 176.19 206.89 173.75 213.44 171.37 219.93 168.62 226.72 165.87 233.8 163.12 240.85 159.95 248.19 156.78 255.83 153.64 263.44 150.14 271.36 146.74 279.56 143.51 287.75 140.09 296.23 136.97 305.02 134.26"
                  stroke-dasharray="0 0"
                  transform="rotate(1.153846153846154, 320, 400)"
                  opacity="0.77"
                ></path>
                <path
                  d="M310.1 145.21C318.63 142.59 327.27 140.57 336.03 139.19 344.8 138.06 353.7 137.68 362.71 138.06 371.77 138.8 380.96 140.34 390.26 142.64 399.62 145.34 409.12 148.78 418.71 152.91 428.36 157.37 438.11 162.45 447.92 168.07 457.75 173.92 467.59 180.22 477.39 186.91 487.14 193.7 496.75 200.79 506.14 208.12 515.35 215.44 524.22 222.93 532.63 230.56 540.68 238.1 548.12 245.73 554.83 253.44 561.01 261.03 566.3 268.68 570.62 276.38 574.26 283.95 576.83 291.6 578.26 299.31 579 306.9 578.63 314.6 577.16 322.39 575.14 330.1 572.18 337.94 568.37 345.92 564.35 353.84 559.78 361.93 554.8 370.19 550.1 378.41 545.36 386.84 540.76 395.45 536.93 404.06 533.57 412.87 530.8 421.89 529.18 430.91 528.33 439.91 528.24 448.89 529.26 457.86 530.89 466.78 533.03 475.62 535.98 484.44 539.15 493.14 542.37 501.69 545.98 510.17 549.33 518.46 552.27 526.47 555.16 534.38 557.37 541.96 558.81 549.15 559.89 556.15 560.04 562.71 559.23 568.73 556.72 577.12 546.06 590.4 538.14 595.17 532.12 597.86 525.38 599.9 518.04 601.3 510.36 602.56 502.19 603.28 493.63 603.54 484.87 603.86 475.82 603.89 466.58 603.72 457.24 603.91 447.78 604.11 438.26 604.44 428.72 605.41 419.17 606.71 409.65 608.4 400.15 610.93 390.71 613.95 381.35 617.48 372.02 621.83 362.78 626.63 353.66 631.77 344.55 637.49 335.55 643.32 326.68 649.07 317.81 654.94 309.25 660.24 301.01 664.8 292.75 668.97 284.79 672.12 277.11 674.15 269.39 675.45 261.95 675.51 254.76 674.32 247.51 672.32 240.5 669.1 233.72 664.76 226.84 659.71 220.17 653.69 213.69 646.85 207.08 639.53 200.64 631.58 194.36 623.15 187.93 614.51 181.62 605.58 175.44 596.47 169.08 587.39 162.84 578.26 156.7 569.16 150.39 560.22 144.19 551.38 138.11 542.66 131.89 534.17 125.8 525.8 119.88 517.57 113.86 509.55 108.04 501.62 102.47 493.77 96.88 486.1 91.58 478.45 86.64 470.79 81.76 463.25 77.29 455.66 73.29 448 69.44 440.4 66.11 432.69 63.35 424.85 60.82 417.04 58.91 409.07 57.65 400.95 56.67 392.84 56.36 384.57 56.76 376.14 57.43 367.72 58.76 359.35 60.72 351.06 62.88 342.78 65.6 334.59 68.84 326.54 72.18 318.52 75.97 310.65 80.15 302.99 84.33 295.37 88.84 287.99 93.62 280.88 98.32 273.84 103.24 267.1 108.34 260.71 113.29 254.41 118.39 248.47 123.61 242.92 128.64 237.48 133.78 232.44 139.03 227.82 144.07 223.29 149.23 219.15 154.51 215.44 159.59 211.74 164.81 208.42 170.19 205.46 175.4 202.44 180.79 199.7 186.37 197.23 191.83 194.6 197.51 192.14 203.43 189.84 209.25 187.26 215.32 184.75 221.66 182.29 227.93 179.47 234.49 176.66 241.31 173.85 248.1 170.65 255.18 167.47 262.54 164.32 269.88 160.85 277.51 157.49 285.44 154.3 293.35 150.94 301.57 147.88 310.09 145.21"
                  stroke-dasharray="0 0"
                  transform="rotate(1.5384615384615385, 320, 400)"
                  opacity="0.35"
                ></path>
                <path
                  d="M315.6 156.16C323.87 153.59 332.26 151.58 340.76 150.19 349.28 149.02 357.93 148.55 366.69 148.79 375.48 149.37 384.39 150.7 393.4 152.75 402.45 155.17 411.61 158.3 420.84 162.08 430.09 166.2 439.41 170.91 448.72 176.16 458.03 181.64 467.3 187.58 476.46 193.92 485.54 200.38 494.42 207.17 503.03 214.2 511.44 221.27 519.45 228.54 526.97 235.95 534.14 243.32 540.69 250.81 546.51 258.38 551.83 265.87 556.3 273.43 559.85 281.05 562.8 288.57 564.76 296.15 565.69 303.79 566.04 311.34 565.38 318.97 563.74 326.68 561.67 334.31 558.77 342.06 555.13 349.91 551.37 357.71 547.12 365.64 542.52 373.7 538.22 381.74 533.88 389.94 529.67 398.28 526.17 406.61 523.08 415.11 520.5 423.76 518.95 432.4 518.07 441 517.85 449.52 518.64 458.03 519.97 466.45 521.74 474.75 524.28 483.02 527.03 491.13 529.85 499.05 533.06 506.91 536.07 514.52 538.74 521.84 541.44 529.06 543.56 535.92 545.03 542.38 546.42 551.6 544.39 567.27 540.85 573.53 535.74 578.87 520.92 586.27 511.52 588.42 504.73 589.6 497.43 590.34 489.7 590.71 481.77 591.2 473.51 591.46 465 591.6 456.38 592.1 447.58 592.66 438.68 593.36 429.73 594.66 420.72 596.27 411.7 598.24 402.68 600.96 393.67 604.12 384.72 607.7 375.78 612.02 366.9 616.71 358.11 621.67 349.33 627.14 340.63 632.68 332.03 638.12 323.44 643.67 315.13 648.68 307.12 653.01 299.08 657.01 291.32 660.08 283.82 662.13 276.29 663.55 268.99 663.84 261.94 662.98 254.82 661.4 247.92 658.69 241.22 654.93 234.44 650.52 227.83 645.17 221.4 639.01 214.85 632.39 208.44 625.12 202.18 617.33 195.77 609.31 189.48 600.93 183.31 592.32 176.98 583.67 170.76 574.9 164.65 566.1 158.38 557.4 152.23 548.73 146.2 540.13 140.04 531.71 134.04 523.38 128.2 515.15 122.29 507.1 116.59 499.13 111.15 491.25 105.69 483.52 100.54 475.83 95.74 468.16 91.01 460.6 86.69 453.03 82.82 445.43 79.11 437.89 75.91 430.28 73.27 422.6 70.85 414.95 69.03 407.19 67.84 399.34 66.92 391.5 66.65 383.55 67.06 375.5 67.74 367.45 69.06 359.49 70.98 351.65 73.1 343.82 75.77 336.12 78.93 328.58 82.21 321.06 85.92 313.72 90.01 306.6 94.12 299.53 98.55 292.69 103.26 286.13 107.89 279.64 112.75 273.44 117.8 267.57 122.71 261.78 127.77 256.33 132.96 251.26 137.97 246.25 143.1 241.62 148.34 237.38 153.38 233.18 158.53 229.35 163.79 225.88 168.87 222.41 174.07 219.26 179.41 216.42 184.59 213.49 189.93 210.81 195.44 208.36 200.82 205.72 206.41 203.23 212.2 200.87 217.89 198.23 223.81 195.65 229.98 193.11 236.07 190.23 242.43 187.36 249.04 184.5 255.61 181.29 262.45 178.1 269.57 174.95 276.66 171.52 284.04 168.21 291.71 165.07 299.37 161.79 307.33 158.79 315.59 156.17"
                  stroke-dasharray="0 0"
                  transform="rotate(1.9230769230769231, 320, 400)"
                  opacity="0.21"
                ></path>
                <path
                  d="M321.29 167.12C329.29 164.6 337.41 162.61 345.63 161.2 353.87 160 362.23 159.45 370.68 159.57 379.16 159.99 387.74 161.12 396.4 162.93 405.08 165.08 413.83 167.9 422.61 171.34 431.4 175.1 440.21 179.44 448.96 184.31 457.69 189.41 466.32 194.98 474.79 200.93 483.15 207.04 491.28 213.48 499.08 220.19 506.67 226.96 513.83 233.94 520.49 241.1 526.8 248.25 532.49 255.53 537.48 262.91 542 270.24 545.73 277.66 548.59 285.14 550.93 292.54 552.37 300.01 552.88 307.54 552.89 315 552.02 322.52 550.28 330.11 548.21 337.63 545.41 345.25 541.97 352.94 538.46 360.59 534.54 368.34 530.33 376.19 526.41 384.02 522.46 391.96 518.62 400.01 515.43 408.05 512.59 416.22 510.19 424.48 508.71 432.74 507.82 440.91 507.49 448.96 508.06 457 509.11 464.92 510.56 472.66 512.71 480.39 515.05 487.92 517.47 495.22 520.29 502.46 522.95 509.43 525.34 516.09 528.81 525.74 532.77 542.88 532.86 550.2 531.68 556.76 524.76 566.98 519.11 570.62 514.73 572.75 509.68 574.4 504.03 575.58 498.08 576.76 491.61 577.58 484.71 578.1 477.59 578.79 470.12 579.31 462.36 579.76 454.48 580.58 446.38 581.47 438.12 582.52 429.8 584.13 421.38 586.01 412.9 588.22 404.41 591.1 395.89 594.35 387.38 597.97 378.87 602.23 370.39 606.79 361.96 611.56 353.54 616.78 345.17 622.03 336.87 627.16 328.57 632.4 320.53 637.13 312.75 641.23 304.95 645.05 297.39 648.03 290.07 650.08 282.71 651.59 275.57 652.07 268.64 651.52 261.66 650.31 254.86 648.07 248.24 644.86 241.55 641.04 235.01 636.34 228.62 630.85 222.13 624.91 215.76 618.32 209.52 611.2 203.16 603.81 196.9 596.03 190.76 587.97 184.48 579.82 178.3 571.5 172.22 563.08 166.02 554.7 159.94 546.3 153.98 537.93 147.93 529.67 142.02 521.46 136.3 513.34 130.53 505.35 124.97 497.43 119.66 489.58 114.37 481.87 109.38 474.2 104.73 466.57 100.18 459.04 96.02 451.52 92.3 444.01 88.75 436.55 85.69 429.07 83.17 421.55 80.87 414.07 79.15 406.53 78.03 398.94 77.18 391.36 76.95 383.72 77.37 376.03 78.05 368.34 79.35 360.78 81.22 353.37 83.3 345.97 85.9 338.72 88.98 331.67 92.18 324.63 95.8 317.79 99.79 311.18 103.81 304.6 108.15 298.27 112.76 292.22 117.32 286.22 122.1 280.51 127.08 275.12 131.93 269.78 136.95 264.77 142.09 260.1 147.08 255.48 152.19 251.2 157.4 247.27 162.43 243.35 167.57 239.76 172.82 236.49 177.89 233.19 183.08 230.17 188.39 227.41 193.55 224.54 198.85 221.89 204.31 219.42 209.64 216.76 215.15 214.22 220.84 211.79 226.43 209.09 232.23 206.44 238.25 203.83 244.2 200.9 250.39 197.98 256.82 195.08 263.2 191.86 269.83 188.67 276.73 185.54 283.6 182.16 290.75 178.9 298.17 175.82 305.58 172.61 313.28 169.69 321.28 167.12"
                  stroke-dasharray="0 0"
                  transform="rotate(2.307692307692308, 320, 400)"
                  opacity="0.69"
                ></path>
                <path
                  d="M326.92 178.07C334.64 175.61 342.47 173.65 350.39 172.24 358.32 171.01 366.35 170.39 374.45 170.39 382.57 170.67 390.77 171.6 399.01 173.18 407.26 175.06 415.55 177.58 423.83 180.7 432.1 184.11 440.33 188.07 448.48 192.55 456.57 197.26 464.52 202.43 472.27 207.99 479.89 213.71 487.24 219.77 494.24 226.11 501.01 232.54 507.35 239.2 513.17 246.05 518.67 252.92 523.56 259.94 527.77 267.08 531.58 274.19 534.64 281.4 536.9 288.69 538.71 295.93 539.7 303.23 539.87 310.59 539.62 317.9 538.6 325.27 536.81 332.69 534.77 340.06 532.1 347.51 528.88 355 525.65 362.47 522.06 370.01 518.21 377.62 514.66 385.21 511.09 392.88 507.6 400.61 504.71 408.35 502.11 416.15 499.89 424.02 498.48 431.88 497.57 439.62 497.15 447.19 497.54 454.77 498.33 462.17 499.47 469.38 501.25 476.56 503.21 483.52 505.26 490.23 507.69 496.88 510.01 503.24 512.11 509.28 515.24 518.02 519.07 533.4 519.4 539.91 515.93 550.31 502.65 560.92 495.6 562.89 490.44 564.12 484.77 565.06 478.65 565.77 472.33 566.68 465.62 567.48 458.61 568.23 451.47 569.35 444.07 570.56 436.48 571.92 428.82 573.8 421.01 575.92 413.11 578.33 405.17 581.34 397.17 584.66 389.14 588.27 381.1 592.46 373.05 596.87 365.01 601.45 356.98 606.41 348.96 611.37 340.98 616.21 333 621.13 325.24 625.59 317.71 629.46 310.16 633.1 302.81 635.97 295.67 638.02 288.5 639.59 281.52 640.23 274.72 639.94 267.87 639.07 261.18 637.26 254.66 634.54 248.06 631.28 241.59 627.19 235.26 622.35 228.84 617.07 222.53 611.15 216.34 604.7 210.04 597.97 203.83 590.82 197.73 583.35 191.52 575.75 185.41 567.94 179.41 559.97 173.3 552.01 167.31 543.96 161.46 535.9 155.53 527.9 149.76 519.92 144.18 511.98 138.56 504.15 133.17 496.36 128.03 488.63 122.92 481.01 118.11 473.43 113.64 465.91 109.27 458.46 105.29 451.04 101.74 443.66 98.36 436.32 95.45 428.99 93.06 421.66 90.88 414.36 89.26 407.04 88.22 399.71 87.43 392.4 87.24 385.06 87.67 377.72 88.36 370.37 89.63 363.19 91.45 356.19 93.47 349.19 96 342.38 98.98 335.77 102.09 329.17 105.6 322.79 109.48 316.65 113.4 310.53 117.63 304.66 122.13 299.07 126.59 293.51 131.28 288.23 136.16 283.26 140.95 278.32 145.9 273.68 150.98 269.36 155.93 265.06 161 261.07 166.17 257.4 171.19 253.71 176.31 250.31 181.53 247.19 186.59 244.01 191.77 241.07 197.05 238.37 202.19 235.53 207.47 232.87 212.87 230.37 218.16 227.68 223.6 225.09 229.21 222.59 234.73 219.82 240.43 217.11 246.33 214.43 252.15 211.45 258.2 208.5 264.46 205.57 270.67 202.35 277.12 199.18 283.82 196.08 290.48 192.76 297.4 189.56 304.58 186.55 311.75 183.43 319.19 180.58 326.91 178.07"
                  stroke-dasharray="0 0"
                  transform="rotate(2.692307692307692, 320, 400)"
                  opacity="0.25"
                ></path>
                <path
                  d="M332.26 189.02C339.68 186.63 347.2 184.71 354.78 183.29 362.37 182.04 370.03 181.36 377.75 181.26 385.47 181.4 393.23 182.16 401.01 183.51 408.78 185.14 416.56 187.37 424.29 190.16 431.99 193.22 439.61 196.82 447.11 200.9 454.54 205.21 461.79 209.97 468.8 215.12 475.68 220.43 482.25 226.09 488.46 232.04 494.45 238.09 499.99 244.38 505.03 250.88 509.76 257.42 513.92 264.13 517.44 270.97 520.59 277.81 523.06 284.76 524.8 291.79 526.16 298.8 526.79 305.88 526.68 313.02 526.25 320.13 525.13 327.29 523.35 334.49 521.38 341.67 518.87 348.89 515.89 356.15 512.93 363.4 509.66 370.69 506.18 378.02 502.99 385.34 499.77 392.71 496.62 400.11 494.01 407.51 491.64 414.95 489.58 422.4 488.25 429.85 487.33 437.14 486.83 444.25 487.05 451.35 487.61 458.26 488.47 464.94 489.92 471.6 491.52 478.02 493.2 484.16 496.25 493.16 501.8 509.46 503.84 516.64 505.39 528.83 501.13 542.65 497.23 545.71 492.33 548.39 479.38 552.28 471.53 553.76 465.96 554.9 460 555.96 453.71 557.01 447.29 558.42 440.59 559.92 433.67 561.56 426.68 563.67 419.5 566 412.18 568.57 404.83 571.67 397.37 575.02 389.83 578.61 382.29 582.7 374.7 586.96 367.08 591.33 359.47 596.04 351.83 600.72 344.19 605.26 336.56 609.88 329.1 614.06 321.83 617.71 314.54 621.16 307.43 623.92 300.49 625.93 293.52 627.54 286.71 628.32 280.06 628.25 273.36 627.68 266.8 626.25 260.37 623.99 253.89 621.25 247.52 617.72 241.27 613.49 234.94 608.86 228.71 603.6 222.58 597.81 216.37 591.74 210.25 585.24 204.23 578.39 198.12 571.38 192.1 564.12 186.2 556.68 180.22 549.18 174.36 541.57 168.64 533.9 162.87 526.25 157.26 518.58 151.84 510.92 146.41 503.32 141.2 495.75 136.25 488.23 131.35 480.77 126.74 473.36 122.46 466 118.3 458.71 114.51 451.44 111.14 444.23 107.93 437.06 105.19 429.91 102.93 422.79 100.89 415.7 99.37 408.62 98.41 401.56 97.69 394.52 97.54 387.48 97.98 380.48 98.66 373.47 99.9 366.66 101.66 360.04 103.62 353.42 106.06 347.01 108.94 340.82 111.94 334.63 115.34 328.66 119.09 322.95 122.89 317.24 126.99 311.78 131.36 306.59 135.71 301.42 140.29 296.52 145.07 291.91 149.76 287.3 154.63 282.99 159.63 278.96 164.51 274.93 169.53 271.17 174.64 267.7 179.62 264.18 184.71 260.93 189.89 257.91 194.94 254.82 200.09 251.93 205.33 249.24 210.45 246.42 215.69 243.74 221.05 241.2 226.3 238.46 231.69 235.81 237.22 233.23 242.66 230.42 248.28 227.64 254.06 224.91 259.78 221.9 265.69 218.92 271.79 215.98 277.85 212.78 284.13 209.63 290.62 206.58 297.08 203.32 303.78 200.2 310.72 197.26 317.64 194.23 324.82 191.46 332.25 189.03"
                  stroke-dasharray="0 0"
                  transform="rotate(3.076923076923077, 320, 400)"
                  opacity="0.91"
                ></path>
                <path
                  d="M337.07 199.98C344.18 197.65 351.36 195.77 358.57 194.36 365.8 193.1 373.06 192.37 380.35 192.17 387.63 192.19 394.93 192.78 402.21 193.92 409.47 195.31 416.69 197.26 423.83 199.73 430.94 202.46 437.93 205.69 444.76 209.38 451.51 213.29 458.05 217.64 464.33 222.36 470.47 227.25 476.3 232.49 481.74 238.01 486.98 243.65 491.79 249.55 496.09 255.65 500.13 261.82 503.63 268.17 506.52 274.66 509.11 281.17 511.07 287.8 512.37 294.53 513.36 301.25 513.7 308.05 513.39 314.91 512.82 321.76 511.66 328.66 509.92 335.6 508.06 342.52 505.73 349.48 503 356.47 500.32 363.44 497.37 370.45 494.24 377.47 491.39 384.49 488.5 391.53 485.67 398.57 483.33 405.62 481.18 412.67 479.28 419.7 478.02 426.74 477.11 433.58 476.54 440.23 476.6 446.86 476.96 453.28 477.57 459.47 479.34 468.58 483.84 485.4 486.16 493.01 490.13 506.46 492.03 522.79 490.77 526.84 485.01 533.28 470.26 540.32 463.41 542.11 458.54 543.48 453.28 544.81 447.68 546.14 441.96 547.81 435.94 549.56 429.67 551.44 423.33 553.75 416.77 556.24 410.05 558.93 403.29 562.08 396.38 565.44 389.37 568.98 382.34 572.95 375.23 577.04 368.05 581.2 360.87 585.65 353.64 590.05 346.37 594.3 339.1 598.62 331.96 602.54 324.97 605.96 317.98 609.22 311.11 611.86 304.39 613.83 297.65 615.46 291.03 616.34 284.54 616.46 278.02 616.15 271.61 615.06 265.31 613.22 258.97 610.94 252.72 607.95 246.58 604.29 240.37 600.27 234.25 595.65 228.23 590.51 222.13 585.09 216.13 579.24 210.22 573.02 204.24 566.64 198.36 559.97 192.59 553.08 186.77 546.12 181.07 539 175.52 531.79 169.94 524.56 164.52 517.28 159.29 509.98 154.08 502.7 149.08 495.43 144.35 488.18 139.67 480.98 135.28 473.8 131.22 466.68 127.27 459.6 123.69 452.55 120.51 445.56 117.49 438.6 114.91 431.67 112.8 424.8 110.9 417.94 109.49 411.12 108.61 404.35 107.95 397.58 107.84 390.86 108.28 384.18 108.96 377.51 110.16 371.04 111.86 364.78 113.74 358.53 116.09 352.49 118.85 346.67 121.74 340.86 125 335.27 128.61 329.93 132.28 324.59 136.24 319.49 140.46 314.66 144.69 309.82 149.14 305.25 153.77 300.94 158.36 296.62 163.12 292.56 168.01 288.77 172.82 284.95 177.75 281.38 182.78 278.06 187.71 274.68 192.74 271.52 197.87 268.58 202.87 265.54 207.98 262.68 213.17 259.98 218.26 257.15 223.45 254.44 228.75 251.84 233.96 249.06 239.28 246.35 244.74 243.72 250.11 240.85 255.63 238.03 261.3 235.25 266.91 232.23 272.69 229.24 278.64 226.3 284.55 223.13 290.65 220.03 296.94 217.02 303.21 213.84 309.69 210.8 316.37 207.95 323.05 205.02 329.94 202.34 337.06 199.98"
                  stroke-dasharray="0 0"
                  transform="rotate(3.4615384615384617, 320, 400)"
                  opacity="0.82"
                ></path>
                <path
                  d="M341.14 210.93C347.93 208.68 354.74 206.85 361.57 205.46 368.39 204.2 375.23 203.42 382.06 203.14 388.88 203.05 395.68 203.48 402.43 204.42 409.15 205.58 415.8 207.26 422.34 209.43 428.83 211.83 435.18 214.7 441.34 218.01 447.42 221.53 453.26 225.45 458.83 229.75 464.26 234.21 469.37 239.01 474.1 244.09 478.64 249.3 482.76 254.76 486.41 260.45 489.82 266.2 492.72 272.15 495.08 278.25 497.17 284.38 498.7 290.65 499.64 297.02 500.34 303.4 500.46 309.87 500.01 316.4 499.36 322.93 498.2 329.52 496.55 336.14 494.82 342.76 492.69 349.41 490.21 356.08 487.81 362.74 485.18 369.42 482.38 376.1 479.85 382.78 477.29 389.46 474.76 396.13 472.66 402.79 470.72 409.44 468.97 416.05 467.79 422.66 466.88 429.07 466.26 435.26 466.28 444.42 468.09 461.51 469.6 469.39 471.63 476.93 475.47 490.44 476.95 496.35 477.13 512.47 469.78 524.09 465.4 526.4 460.32 528.74 447.82 533.22 440.55 535.59 435.49 537.49 430.11 539.47 424.48 541.55 418.77 544.02 412.83 546.64 406.69 549.41 400.51 552.58 394.16 555.91 387.68 559.38 381.17 563.21 374.55 567.13 367.83 571.07 361.1 575.26 354.29 579.38 347.41 583.35 340.53 587.38 333.74 591.03 327.06 594.23 320.37 597.3 313.79 599.81 307.31 601.72 300.82 603.34 294.42 604.3 288.13 604.57 281.81 604.48 275.58 603.69 269.44 602.22 263.27 600.37 257.18 597.87 251.17 594.75 245.12 591.29 239.15 587.27 233.27 582.76 227.33 577.98 221.48 572.77 215.72 567.19 209.91 561.44 204.2 555.39 198.61 549.09 192.98 542.7 187.48 536.13 182.13 529.43 176.77 522.68 171.57 515.85 166.57 508.97 161.59 502.1 156.83 495.19 152.33 488.29 147.9 481.41 143.75 474.55 139.92 467.72 136.2 460.92 132.84 454.15 129.86 447.42 127.03 440.73 124.63 434.07 122.67 427.47 120.9 420.89 119.61 414.35 118.81 407.88 118.22 401.41 118.14 394.99 118.59 388.65 119.25 382.3 120.41 376.17 122.04 370.26 123.85 364.34 126.09 358.65 128.73 353.18 131.49 347.71 134.61 342.46 138.06 337.45 141.58 332.44 145.39 327.66 149.45 323.13 153.52 318.58 157.82 314.28 162.3 310.22 166.76 306.14 171.38 302.29 176.14 298.68 180.84 295.03 185.66 291.6 190.6 288.39 197.92 283.57 212.89 274.68 220.54 270.54 225.57 267.68 230.7 264.94 235.93 262.29 241.07 259.47 246.32 256.71 251.68 254.02 256.97 251.12 262.39 248.26 267.94 245.46 273.44 242.43 279.08 239.45 284.87 236.53 290.62 233.4 296.54 230.36 302.62 227.42 308.68 224.33 314.92 221.38 321.34 218.62 327.75 215.8 334.35 213.22 341.13 210.93"
                  stroke-dasharray="0 0"
                  transform="rotate(3.8461538461538463, 320, 400)"
                  opacity="0.32"
                ></path>
                <path
                  d="M344.31 221.88C350.74 219.72 357.17 217.94 363.59 216.57 370 215.31 376.39 214.51 382.74 214.15 395.41 213.96 407.83 215.7 419.73 219.26 431.44 223.64 442.41 229.75 452.3 237.32 461.71 245.52 469.73 254.96 476.04 265.33 481.57 276.04 485.18 287.48 486.7 299.37 487.46 311.38 486.27 323.75 483.26 336.25 480.1 348.79 475.75 361.45 470.62 374.06 468.39 380.37 466.12 386.67 463.88 392.94 462.01 399.21 460.26 405.45 458.67 411.63 457.11 420.79 455.84 438.03 456.02 446.06 457.61 456.56 459.41 466.02 461.04 474.35 463.41 482.56 464.88 489.6 465.16 495.43 464.57 503.57 454.25 515.33 444.53 520 437.05 523.83 428.18 527.74 418.15 531.89 407.87 537.39 396.66 543.39 384.75 549.81 378.77 553.48 372.64 557.21 366.38 560.93 360.12 564.86 353.75 568.71 347.27 572.4 340.8 576.14 334.38 579.53 328.03 582.51 321.68 585.39 315.4 587.76 309.2 589.59 296.76 592.53 284.58 593 272.73 591.02 260.78 587.76 249.07 582.15 237.71 574.56 226.2 566 215.01 555.87 204.27 544.63 193.47 532.94 183.21 520.52 173.68 507.74 164.31 494.9 155.85 481.87 148.57 468.91 141.75 456.01 136.32 443.18 132.54 430.59 130.91 424.32 129.73 418.09 129.01 411.93 128.49 405.77 128.45 399.68 128.89 393.66 130.1 384.74 134.99 367.97 138.56 360.14 143.92 349.81 150.59 340.36 158.3 331.81 166.12 323.2 174.76 315.45 184.01 308.56 193.07 301.48 202.63 295.12 212.56 289.45 222.18 283.35 232.18 277.73 242.5 272.51 252.53 266.62 263 260.95 273.86 255.52 284.55 249.32 295.76 243.34 307.49 237.77 313.33 234.78 319.32 231.93 325.46 229.28 331.59 226.56 337.87 224.08 344.3 221.89"
                  stroke-dasharray="0 0"
                  transform="rotate(4.230769230769231, 320, 400)"
                  opacity="0.86"
                ></path>
                <path
                  d="M346.44 232.84C358.55 228.74 370.55 226.18 382.26 225.21 393.94 224.82 405.25 226.2 415.95 229.24 426.46 233 436.17 238.36 444.79 245.1 452.96 252.43 459.81 260.95 465.06 270.39 469.67 280.18 472.55 290.71 473.59 301.72 474.06 312.88 472.84 324.42 470.07 336.11 467.27 347.87 463.45 359.74 458.93 371.55 455.3 383.38 451.68 395.14 448.36 406.64 446.73 418.15 445.75 428.81 445.38 438.55 446.47 448.25 447.71 456.97 448.82 464.64 451.18 475.53 451.27 492.19 447.87 498.35 444.76 502.52 440.1 506.21 434 509.58 427.52 513.76 419.72 518 410.78 522.45 401.62 528.05 391.51 534.02 380.62 540.25 369.67 547.49 358.07 554.7 345.96 561.44 333.86 568.37 321.85 573.8 310.06 577.47 298.24 580.37 286.6 581.09 275.21 579.63 263.76 577.08 252.52 572.41 241.58 565.91 230.57 558.52 219.87 549.63 209.61 539.61 199.36 529.13 189.64 517.85 180.66 506.13 171.87 494.27 163.97 482.15 157.2 470.01 150.88 457.89 145.87 445.8 142.41 433.9 139.62 422.04 138.5 410.35 139.2 398.98 140.63 387.6 143.76 377.04 148.37 367.33 153.42 357.59 159.74 348.65 167.05 340.56 174.5 332.37 182.77 324.95 191.63 318.29 200.38 311.42 209.64 305.17 219.26 299.51 228.64 293.44 238.4 287.77 248.44 282.47 258.27 276.57 268.46 270.87 279 265.43 289.38 259.33 300.21 253.48 311.45 248.06 322.63 242.23 334.31 237.05 346.43 232.84"
                  stroke-dasharray="0 0"
                  transform="rotate(4.615384615384616, 320, 400)"
                  opacity="0.58"
                ></path>
                <path
                  d="M347.43 243.79C358.76 239.87 369.86 237.37 380.58 236.32 391.27 235.76 401.48 236.81 411.02 239.36 420.38 242.54 428.9 247.19 436.34 253.13 443.41 259.6 449.22 267.2 453.57 275.69 457.4 284.54 459.7 294.11 460.39 304.19 460.67 314.44 459.5 325.08 457.01 335.9 454.57 346.79 451.26 357.81 447.34 368.78 444.22 379.77 441.05 390.68 438.06 401.34 436.51 411.99 435.44 421.85 434.82 430.84 435.47 439.79 436.21 447.86 436.83 454.98 438.48 465.18 438.06 481.27 435 487.57 432.32 491.92 428.28 495.89 422.93 499.6 417.31 504.06 410.45 508.57 402.51 513.21 394.38 518.83 385.29 524.71 375.39 530.71 365.44 537.55 354.78 544.26 343.54 550.49 332.31 556.87 321.06 561.9 309.93 565.34 298.8 568.18 287.76 569.08 276.92 568.07 266.05 566.14 255.35 562.31 244.94 556.81 234.5 550.52 224.36 542.81 214.67 533.98 205.03 524.71 195.92 514.61 187.53 503.98 179.36 493.19 172.04 482.06 165.8 470.82 160 459.57 155.43 448.29 152.29 437.15 149.77 426.02 148.79 415.04 149.51 404.34 150.88 393.64 153.82 383.7 158.14 374.53 162.89 365.33 168.81 356.87 175.7 349.16 182.74 341.35 190.58 334.21 199.01 327.73 207.39 321.04 216.27 314.88 225.52 309.23 234.6 303.19 244.04 297.51 253.74 292.15 263.28 286.26 273.15 280.59 283.29 275.19 293.31 269.23 303.7 263.55 314.4 258.31 325.06 252.74 336.09 247.81 347.43 243.79"
                  stroke-dasharray="0 0"
                  transform="rotate(5, 320, 400)"
                  opacity="0.18"
                ></path>
                <path
                  d="M347.24 254.74C357.76 251.02 367.95 248.6 377.68 247.49 387.37 246.79 396.52 247.53 404.96 249.64 413.24 252.28 420.67 256.26 427.06 261.43 433.14 267.06 438.05 273.76 441.64 281.32 444.84 289.2 446.68 297.8 447.13 306.91 447.31 316.2 446.26 325.89 444.07 335.79 442.02 345.77 439.2 355.89 435.83 365.98 433.18 376.1 430.43 386.15 427.75 395.97 426.29 405.78 425.16 414.86 424.33 423.16 424.6 431.44 424.91 438.92 425.08 445.58 426.05 455.2 425 470.9 422.14 477.37 419.76 481.87 416.2 486.07 411.49 490.07 406.58 494.73 400.54 499.41 393.48 504.16 386.28 509.74 378.14 515.45 369.19 521.19 360.19 527.6 350.46 533.82 340.11 539.54 329.76 545.39 319.31 550 308.91 553.21 298.51 555.94 288.15 556.98 277.94 556.34 267.73 554.95 257.66 551.86 247.86 547.26 238.07 541.99 228.57 535.38 219.51 527.71 210.54 519.62 202.09 510.68 194.33 501.18 186.81 491.49 180.1 481.4 174.41 471.13 169.13 460.82 165 450.41 162.19 440.07 159.94 429.75 159.1 419.51 159.81 409.5 161.12 399.49 163.87 390.15 167.88 381.51 172.3 372.84 177.82 364.81 184.25 357.45 190.86 349.98 198.22 343.1 206.17 336.78 214.12 330.26 222.56 324.19 231.36 318.56 240.06 312.58 249.11 306.9 258.4 301.54 267.57 295.72 277.03 290.11 286.71 284.79 296.31 279.01 306.2 273.53 316.3 268.52 326.37 263.22 336.72 258.55 347.24 254.74"
                  stroke-dasharray="0 0"
                  transform="rotate(5.384615384615384, 320, 400)"
                  opacity="0.82"
                ></path>
                <path
                  d="M345.88 265.7C355.56 262.19 364.84 259.85 373.61 258.7 382.33 257.89 390.47 258.37 397.88 260.07 405.16 262.22 411.6 265.57 417.06 270.01 422.28 274.85 426.43 280.67 429.4 287.31 432.09 294.24 433.6 301.87 433.91 310 434.06 318.31 433.16 327.02 431.3 335.97 429.61 345 427.26 354.2 424.42 363.39 422.2 372.62 419.83 381.8 417.44 390.79 416.08 399.78 414.91 408.13 413.93 415.78 413.87 423.43 413.8 430.39 413.59 436.65 413.92 445.78 412.19 461.17 409.42 467.79 407.23 472.4 404.04 476.78 399.84 480.99 395.51 485.76 390.17 490.52 383.9 495.3 377.51 500.75 370.25 506.25 362.2 511.68 354.1 517.64 345.28 523.37 335.82 528.58 326.35 533.91 316.74 538.12 307.11 541.09 297.5 543.69 287.88 544.81 278.38 544.46 268.89 543.52 259.52 541.08 250.41 537.28 241.34 532.93 232.54 527.35 224.18 520.77 215.93 513.8 208.18 506.01 201.09 497.62 194.25 489.05 188.17 480.02 183.04 470.75 178.29 461.43 174.59 451.94 172.1 442.45 170.11 432.96 169.41 423.5 170.12 414.2 171.35 404.89 173.9 396.16 177.61 388.04 181.68 379.89 186.78 372.28 192.72 365.25 198.86 358.12 205.71 351.48 213.13 345.33 220.59 338.98 228.53 333.01 236.82 327.43 245.06 321.54 253.63 315.93 262.43 310.61 271.15 304.9 280.13 299.42 289.28 294.24 298.38 288.68 307.69 283.45 317.15 278.67 326.59 273.68 336.2 269.28 345.88 265.7"
                  stroke-dasharray="0 0"
                  transform="rotate(5.769230769230768, 320, 400)"
                  opacity="0.27"
                ></path>
                <path
                  d="M343.41 276.65C352.24 273.36 360.61 271.13 368.44 269.97 376.23 269.08 383.41 269.33 389.88 270.67 396.24 272.37 401.8 275.15 406.46 278.9 410.94 282.99 414.46 287.99 416.94 293.74 419.23 299.74 420.5 306.41 420.76 313.57 420.94 320.9 420.22 328.63 418.7 336.62 417.36 344.69 415.45 352.94 413.08 361.24 411.26 369.56 409.24 377.87 407.14 386.06 405.87 394.24 404.69 401.88 403.6 408.93 403.27 415.99 402.88 422.47 402.34 428.38 402.11 437.05 399.68 452.14 396.92 458.86 394.85 463.53 391.92 468.01 388.14 472.33 384.28 477.13 379.54 481.89 373.95 486.6 368.29 491.86 361.82 497.08 354.61 502.17 347.36 507.68 339.41 512.9 330.84 517.63 322.27 522.45 313.51 526.26 304.7 528.97 295.92 531.41 287.09 532.57 278.36 532.45 269.66 531.87 261.06 529.99 252.7 526.91 244.4 523.37 236.37 518.72 228.75 513.15 221.26 507.24 214.25 500.54 207.86 493.24 201.71 485.75 196.27 477.8 191.7 469.54 187.47 461.22 184.2 452.67 182.04 444.07 180.3 435.45 179.73 426.79 180.42 418.21 181.58 409.63 183.92 401.53 187.31 393.92 191.03 386.29 195.69 379.12 201.13 372.42 206.76 365.63 213.07 359.25 219.92 353.28 226.83 347.13 234.21 341.31 241.93 335.83 249.63 330.08 257.66 324.58 265.89 319.37 274.08 313.83 282.5 308.53 291.04 303.53 299.57 298.24 308.25 293.28 317 288.78 325.75 284.11 334.59 280.01 343.41 276.65"
                  stroke-dasharray="0 0"
                  transform="rotate(6.153846153846154, 320, 400)"
                  opacity="0.54"
                ></path>
                <path
                  d="M339.94 287.6C347.9 284.55 355.38 282.45 362.32 281.29 372.36 280.37 389.06 283.86 395.43 288.11 400.78 293.63 406.93 308.64 407.74 317.73 407.99 324.09 407.48 330.86 406.28 337.89 405.28 345 403.76 352.32 401.84 359.72 400.36 367.14 398.67 374.61 396.83 382 395.67 389.39 394.5 396.35 393.34 402.83 392.47 412.34 390.62 429.15 389.16 436.58 387.55 443.87 381.39 457.5 376.57 464.1 373.09 468.82 368.85 473.49 363.87 478.06 358.84 483.05 353.08 487.96 346.66 492.67 340.2 497.7 333.09 502.43 325.4 506.67 317.71 510.99 309.82 514.42 301.86 516.87 293.93 519.13 285.94 520.28 278.03 520.34 270.16 520.05 262.39 518.62 254.84 516.16 247.36 513.33 240.14 509.52 233.3 504.86 226.6 499.92 220.35 494.25 214.68 487.98 209.22 481.55 204.42 474.63 200.41 467.38 196.7 460.06 193.86 452.47 192 444.75 190.51 437.02 190.05 429.18 190.73 421.35 191.8 413.51 193.93 406.04 196.99 398.98 200.35 391.88 204.56 385.15 209.48 378.81 214.59 372.39 220.33 366.3 226.56 360.55 232.88 354.66 239.65 349.04 246.73 343.7 253.83 338.16 261.24 332.84 268.83 327.79 276.41 322.5 284.19 317.43 292.07 312.67 299.94 307.69 307.93 303.04 315.93 298.84 323.94 294.51 331.98 290.71 339.94 287.6"
                  stroke-dasharray="0 0"
                  transform="rotate(6.538461538461538, 320, 400)"
                  opacity="0.69"
                ></path>
                <path
                  d="M335.61 298.56C342.7 295.75 349.32 293.79 355.4 292.66 364.2 291.64 378.64 294.2 384.11 297.66 388.71 302.19 394.09 314.79 394.91 322.54 395.24 327.98 394.94 333.81 394.06 339.92 393.36 346.09 392.21 352.5 390.67 359.02 389.52 365.56 388.12 372.19 386.53 378.81 385.47 385.43 384.34 391.72 383.14 397.64 382.02 406.37 379.47 422.15 377.71 429.3 375.85 436.38 369.74 449.77 365.28 456.25 362.11 460.82 358.29 465.3 353.84 469.65 349.37 474.32 344.27 478.86 338.57 483.16 332.85 487.71 326.56 491.95 319.73 495.72 312.9 499.55 305.88 502.59 298.8 504.79 291.73 506.84 284.62 507.95 277.57 508.13 270.57 508.05 263.65 507.01 256.95 505.06 250.32 502.84 243.93 499.76 237.91 495.92 232.01 491.87 226.53 487.13 221.57 481.82 216.81 476.38 212.64 470.46 209.18 464.18 205.98 457.84 203.55 451.2 201.98 444.37 200.73 437.53 200.38 430.53 201.03 423.46 202.01 416.38 203.92 409.57 206.66 403.07 209.66 396.54 213.41 390.29 217.8 384.35 222.36 378.34 227.5 372.59 233.1 367.11 238.79 361.52 244.89 356.16 251.29 351.05 257.73 345.78 264.45 340.71 271.34 335.9 278.25 330.9 285.32 326.13 292.47 321.67 299.63 317.04 306.86 312.73 314.08 308.85 321.31 304.89 328.52 301.41 335.61 298.56"
                  stroke-dasharray="0 0"
                  transform="rotate(6.923076923076923, 320, 400)"
                  opacity="0.47"
                ></path>
                <path
                  d="M330.61 309.51C343.07 304.49 353.69 302.53 362.07 303.41 370.29 304.94 376.13 309.32 379.38 316.01 382.54 323.22 383.37 332.4 382.04 342.81 381.37 353.4 379.34 364.9 376.22 376.63 374.77 388.36 372.69 399.19 370.08 408.87 368.65 418.73 365.95 427.82 361.76 436.05 357.92 444.96 352.03 453.49 344.1 461.36 336.14 470.15 326.04 478.25 314.07 484.77 302.09 491.48 289.51 495.2 277.14 495.85 264.94 495.79 253.17 492.47 242.64 486.39 232.58 479.67 224.11 470.59 218.04 459.93 212.84 449.07 210.39 437.02 211.34 424.43 213.37 411.84 218.55 399.9 226.09 388.95 234.24 377.81 244.37 367.36 255.67 357.86 267.17 347.9 279.65 338.62 292.37 330.51 305.16 321.95 318.15 314.68 330.61 309.51"
                  stroke-dasharray="0 0"
                  transform="rotate(7.3076923076923075, 320, 400)"
                  opacity="0.75"
                ></path>
                <path
                  d="M325.16 320.46C335.92 315.97 345.02 314.1 352.16 314.65 359.21 315.65 364.25 319.08 367.15 324.5 370.05 330.31 371.05 337.88 370.24 346.62 369.98 355.51 368.5 365.34 365.92 375.59 364.58 385.83 362.5 395.52 359.81 404.39 358.04 413.42 355.16 421.92 351.06 429.71 347.29 438.01 341.87 445.94 334.83 453.17 327.79 461.04 319 468.17 308.66 473.81 298.32 479.61 287.51 482.84 276.93 483.51 266.49 483.7 256.47 481.18 247.59 476.31 239.1 470.98 232.01 463.56 227 454.63 222.69 445.55 220.72 435.24 221.64 424.23 223.42 413.21 227.89 402.55 234.38 392.6 241.39 382.52 250.15 372.93 259.94 364.16 269.96 355.06 280.84 346.59 291.93 339.22 303.09 331.55 314.39 325.07 325.16 320.46"
                  stroke-dasharray="0 0"
                  transform="rotate(7.6923076923076925, 320, 400)"
                  opacity="0.23"
                ></path>
                <path
                  d="M319.48 331.42C328.58 327.48 336.25 325.75 342.29 326.03 350.44 327.93 358.45 341.15 358.65 351.4 358.73 358.69 357.71 366.93 355.61 375.71 354.41 384.5 352.41 393.01 349.78 400.97 347.82 409.05 344.88 416.78 340.97 423.94 337.33 431.45 332.4 438.61 326.21 445.06 320.04 451.93 312.5 458.07 303.74 462.86 294.98 467.75 285.91 470.5 277.09 471.14 268.39 471.48 260.11 469.59 252.82 465.75 245.85 461.61 240.08 455.66 236.08 448.34 232.6 440.9 231.08 432.28 231.95 422.86 233.47 413.43 237.23 404.13 242.69 395.3 248.56 386.4 255.92 377.83 264.19 369.95 272.66 361.86 281.89 354.33 291.3 347.8 300.79 341.09 310.38 335.44 319.48 331.42"
                  stroke-dasharray="0 0"
                  transform="rotate(8.076923076923077, 320, 400)"
                  opacity="0.61"
                ></path>
                <path
                  d="M313.83 342.37C324.47 338.25 339.48 338.81 343.67 343.09 346.7 348.96 347.28 366.32 345.31 377.01 344.27 384.35 342.43 391.61 339.96 398.54 337.96 405.54 335.13 412.34 331.51 418.68 328.1 425.23 323.7 431.46 318.37 437.02 313.07 442.84 306.74 447.96 299.52 451.91 292.3 455.92 284.92 458.18 277.81 458.74 270.79 459.13 264.17 457.75 258.42 454.79 252.88 451.64 248.37 447 245.29 441.15 242.58 435.22 241.46 428.21 242.25 420.39 243.51 412.56 246.58 404.69 251.02 397.12 255.77 389.51 261.76 382.12 268.5 375.28 275.41 368.32 282.96 361.86 290.68 356.26 298.47 350.57 306.34 345.78 313.83 342.37"
                  stroke-dasharray="0 0"
                  transform="rotate(8.461538461538462, 320, 400)"
                  opacity="0.95"
                ></path>
                <path
                  d="M308.44 353.33C320.25 347.93 328.55 348.27 332.59 353.14 336.93 358.33 337.85 367.64 335 379.42 333.67 391.2 329.24 403.32 322.7 413.84 316.76 424.87 307.63 434.81 296.18 440.95 284.72 447.28 273.24 447.87 264.43 443.52 256.22 438.78 251.48 429.38 252.56 416.93 254.86 404.47 262.58 391.44 272.94 380.2 283.79 368.75 296.62 358.88 308.44 353.33"
                  stroke-dasharray="0 0"
                  transform="rotate(8.846153846153847, 320, 400)"
                  opacity="0.82"
                ></path>
                <path
                  d="M303.54 364.28C315.47 360.16 326.12 370.57 324.7 382.82 323.58 391.7 319.86 401.11 314.54 409.36 309.57 417.86 302.39 425.43 293.86 430 285.31 434.68 277.07 435.14 270.94 432.02 265.13 428.72 261.91 421.94 262.86 412.66 264.53 403.37 270.1 393.43 277.62 384.77 285.43 376.04 294.79 368.52 303.54 364.28"
                  stroke-dasharray="0 0"
                  transform="rotate(9.230769230769232, 320, 400)"
                  opacity="0.65"
                ></path>
                <path
                  d="M299.35 375.23C310.9 369.65 317.1 375.12 314.39 387.05 313.12 398.96 304.01 413.09 292.66 419.05 281.3 425.18 272.03 420.07 273.17 407.78 275.61 395.48 287.8 380.98 299.35 375.23"
                  stroke-dasharray="0 0"
                  transform="rotate(9.615384615384615, 320, 400)"
                  opacity="0.60"
                ></path>
              </g>
            </svg>